# xmcd CD database file
#
# Track frame offsets:
#	150
#	18242
#	37912
#	54790
#	77135
#	95949
#	111966
#	132970
#	147022
#	163103
#	179033
#	198217
#	224261
#	241508
#
# Disc length: 3530 seconds
#
# Revision: 2
# Processed by: cddbd v1.5.2PL0 Copyright (c) Steve Scherf et al.
# Submitted via: CDex 1.51
#
DISCID=b90dc80e
DTITLE=Nero - The Tribute
DYEAR=2008
DGENRE=Country
TTITLE0=Johnny
TTITLE1=Thank You
TTITLE2=Imagine
TTITLE3=Hello Sweetheart
TTITLE4=(Everything I Do) I Do It For You
TTITLE5=Lonesome Town
TTITLE6=Frist Blood
TTITLE7=If I Can Dream
TTITLE8=Unchained Melody
TTITLE9=Baby Boy
TTITLE10=Stand By Me
TTITLE11=Little House
TTITLE12=I'll Stand By You
TTITLE13=My Way
EXTD=YEAR: 2008
EXTT0=
EXTT1=
EXTT2=
EXTT3=
EXTT4=
EXTT5=
EXTT6=
EXTT7=
EXTT8=
EXTT9=
EXTT10=
EXTT11=
EXTT12=
EXTT13=
PLAYORDER=
